<svg width="1440" height="518" viewBox="0 0 1440 518" fill="none" xmlns="http://www.w3.org/2000/svg">
<path d="M524.035 392.999C522.243 392.999 520.491 393.53 519.002 394.525C517.512 395.521 516.35 396.936 515.665 398.591C514.979 400.247 514.8 402.068 515.149 403.826C515.499 405.583 516.362 407.197 517.629 408.464C518.896 409.731 520.51 410.594 522.267 410.944C524.025 411.294 525.846 411.114 527.502 410.428C529.157 409.743 530.572 408.581 531.568 407.092C532.563 405.602 533.095 403.85 533.095 402.058C533.095 399.655 532.14 397.351 530.441 395.652C528.742 393.953 526.438 392.999 524.035 392.999ZM524.035 407.634C522.932 407.634 521.854 407.307 520.937 406.694C520.02 406.081 519.306 405.211 518.884 404.192C518.462 403.173 518.351 402.052 518.567 400.971C518.782 399.889 519.313 398.896 520.092 398.116C520.872 397.336 521.866 396.805 522.947 396.59C524.029 396.375 525.15 396.485 526.168 396.907C527.187 397.329 528.058 398.044 528.671 398.961C529.283 399.878 529.61 400.956 529.61 402.058V402.058C529.61 403.537 529.023 404.955 527.977 406.001C526.932 407.046 525.514 407.634 524.035 407.634Z" fill="#E4E4E4"/>
<path d="M489.189 386.029H524.035V420.517C524.035 421.721 523.556 422.875 522.705 423.727C521.854 424.578 520.699 425.056 519.495 425.056H493.728C492.524 425.056 491.37 424.578 490.518 423.727C489.667 422.875 489.189 421.721 489.189 420.517V386.029Z" fill="#E4E4E4"/>
<rect width="1440" height="518" fill="#666666"/>
<path d="M605.427 446.921H81.7067C81.5125 446.612 81.3329 445.275 81.2025 443.165C81.0721 441.055 81 438.321 81 435.488C81 432.655 81.0721 429.922 81.2025 427.812C81.3329 425.702 81.5125 424.364 81.7067 424.055H605.427C605.622 424.364 605.801 425.702 605.932 427.812C606.062 429.922 606.134 432.655 606.134 435.488C606.134 438.321 606.062 441.055 605.932 443.165C605.801 445.275 605.622 446.612 605.427 446.921Z" fill="#CACACA"/>
<path d="M151.499 410.951L148.26 426.968L208.495 447.085L213.276 423.446L151.499 410.951Z" fill="#FFB6B6"/>
<path d="M157.555 407.924L151.175 439.466L151.174 439.467C150.096 444.798 146.944 449.482 142.411 452.489C137.879 455.496 132.338 456.579 127.007 455.501L126.354 455.369L136.8 403.726L157.555 407.924Z" fill="#2F2E41"/>
<path d="M219.758 190.334C242.346 190.334 260.658 172.023 260.658 149.434C260.658 126.846 242.346 108.534 219.758 108.534C197.17 108.534 178.858 126.846 178.858 149.434C178.858 172.023 197.17 190.334 219.758 190.334Z" fill="#FEB8B8"/>
<path d="M257.959 114.149C251.844 104.22 242.272 96.903 231.086 93.6076L226.065 97.2717V92.5139C223.378 92.1028 220.659 91.9444 217.943 92.0408L213.611 95.9604V92.3665C207.198 93.1635 201.018 95.2808 195.464 98.5849C189.909 101.889 185.099 106.308 181.337 111.564C171.93 125.126 170.342 143.994 179.594 157.664C182.134 149.858 185.217 142.534 187.758 134.729C189.754 135.001 191.777 135.011 193.776 134.758L196.866 127.547L197.73 134.453C207.308 133.619 221.515 131.786 230.596 130.108L229.712 124.81L234.995 129.212C237.777 128.572 239.429 127.99 239.293 127.547C246.046 138.434 254.311 145.388 261.064 156.275C263.629 140.923 266.581 128.158 257.959 114.149Z" fill="#2F2E41"/>
<path d="M233.065 417.074C291.227 417.074 338.376 403.885 338.376 387.616C338.376 371.348 291.227 358.159 233.065 358.159C174.904 358.159 127.755 371.348 127.755 387.616C127.755 403.885 174.904 417.074 233.065 417.074Z" fill="#2F2E41"/>
<path d="M307.721 254.609C306.315 246.148 304.864 237.524 300.932 229.902C298.347 224.909 294.245 220.152 288.714 219.164C287.625 219.067 286.554 218.819 285.533 218.428C283.912 217.647 262.136 205.216 258.675 203.051C255.703 201.192 251.011 197.75 248.646 197.75C246.266 197.698 237.141 199.822 201.526 197.038C195.535 199.442 189.733 202.295 184.171 205.571C184.056 205.495 147.205 225.284 145.82 225.232C143.199 225.121 140.761 226.8 139.258 228.914C137.756 231.028 137.051 233.645 136.313 236.175C144.362 254.1 151.726 272.048 159.776 289.972C160.153 290.647 160.353 291.407 160.358 292.18C160.196 292.983 159.854 293.738 159.356 294.388C155.409 300.729 155.534 308.704 155.966 316.157C156.397 323.61 156.931 331.482 153.6 338.162C152.694 339.996 151.516 341.675 150.655 343.509C148.637 347.663 147.908 360.948 149.086 365.411L296.744 369.641C293.569 360.914 307.721 254.609 307.721 254.609Z" fill="#FECF28"/>
<path d="M123.55 290.767C123.255 292.898 123.225 295.058 123.461 297.196L125.578 327.59C125.776 330.454 125.972 333.312 126.241 336.169C126.748 341.715 127.507 347.216 128.448 352.709C128.47 353.489 128.8 354.229 129.366 354.766C129.932 355.303 130.688 355.594 131.468 355.574C140.784 357.545 150.409 357.466 159.916 356.929C174.424 356.119 211.542 354.587 213.81 351.642C216.077 348.696 214.756 343.931 211.799 341.549C208.842 339.167 159.86 333.36 159.86 333.36C160.339 329.567 161.783 325.995 163.152 322.394C165.612 316.007 167.91 309.411 167.954 302.569C167.998 295.727 165.421 288.534 159.816 284.615C155.206 281.397 149.27 280.8 143.652 280.932C139.565 281.05 132.502 280.07 128.769 281.669C125.814 282.97 124.101 287.874 123.55 290.767Z" fill="#FBBEBE"/>
<path d="M307.984 359.471C310.436 358.535 313.139 358.874 315.768 359.228C324.23 360.384 332.816 361.57 340.659 364.95C344.342 366.527 347.847 368.632 350.336 371.731C352.544 374.522 353.834 377.939 355.057 381.305L357.885 389.052C359.088 391.963 359.917 395.014 360.353 398.133C361.237 407.404 354.896 416.146 346.92 420.963C338.944 425.779 329.555 427.494 320.408 429.291C311.261 431.088 302.078 433.076 292.968 435.183C288.719 436.286 284.408 437.134 280.058 437.723C270.308 438.827 260.116 437.201 250.851 440.426C247.169 441.716 243.553 443.63 239.733 444.521C237.195 445.055 234.628 445.446 232.045 445.692L214.51 447.695C210.945 448.172 207.355 448.447 203.759 448.519C196.1 448.519 188.566 446.706 181.129 444.892C180.339 444.753 179.587 444.45 178.921 444.001C177.743 443.073 177.485 441.431 177.316 439.944C176.565 433.36 175.908 426.769 175.345 420.171C175.168 418.028 175.036 415.708 176.206 413.904C177.679 411.696 180.552 411.002 183.174 410.575C194.291 408.756 205.553 407.975 216.814 408.24C221.093 403.962 228.148 403.94 233.753 401.612C235.815 400.665 237.81 399.58 239.726 398.364C249.75 392.516 260.953 388.976 272.519 388.003C274.784 387.934 277.034 387.613 279.228 387.046C283.565 385.698 287.521 382.03 291.976 382.929C292.528 381.405 292.911 379.364 294.183 378.319C294.814 377.781 295.597 377.421 296.179 376.846C297.409 375.601 297.52 373.642 297.335 371.904C297.15 370.166 296.738 368.384 297.188 366.69C297.374 366.049 297.65 365.436 298.005 364.871C300.207 361.061 303.543 359.102 307.984 359.471Z" fill="#2F2E41"/>
<path d="M135.887 236.721C135.17 237.472 134.614 238.362 134.253 239.336C128.3 252.751 124.784 267.12 123.869 281.769C123.885 282.483 123.72 283.19 123.39 283.824C123.065 284.245 122.703 284.637 122.308 284.995C121.964 285.403 121.703 285.875 121.541 286.383C121.379 286.892 121.319 287.428 121.364 287.96C121.41 288.492 121.559 289.01 121.804 289.484C122.05 289.958 122.386 290.379 122.794 290.723C122.861 290.78 122.93 290.834 123 290.886C124.215 288.6 127.124 287.852 129.709 287.653C142.089 286.674 154.181 292.433 166.597 291.999C165.721 288.972 164.461 286.063 163.747 283C160.587 269.397 168.468 254.588 163.636 241.487C162.671 238.865 161.059 236.287 158.518 235.138C157.466 234.714 156.366 234.423 155.241 234.271C152.104 233.704 145.858 231.281 142.825 232.253C141.705 232.614 141.264 233.667 140.336 234.303C138.926 235.204 137.056 235.535 135.887 236.721Z" fill="#FECF28"/>
<path d="M307.81 281.669C304.077 280.07 297.014 281.05 292.927 280.932C287.309 280.8 281.373 281.397 276.763 284.615C271.158 288.534 268.58 295.727 268.625 302.569C268.669 309.411 270.966 316.007 273.426 322.394C274.796 325.995 276.24 329.567 276.718 333.36C276.718 333.36 227.737 339.167 224.78 341.549C221.823 343.931 220.501 348.696 222.769 351.642C225.037 354.587 295.795 357.545 305.111 355.574C305.891 355.594 306.647 355.303 307.213 354.766C307.779 354.229 308.109 353.489 308.13 352.709C309.072 347.216 309.83 341.715 310.338 336.169C310.607 333.312 310.802 330.454 311.001 327.59L313.117 297.196C313.353 295.058 313.324 292.898 313.029 290.767C312.477 287.874 310.765 282.97 307.81 281.669Z" fill="#FBBEBE"/>
<path d="M296.243 234.303C295.315 233.667 294.873 232.614 293.754 232.253C290.72 231.281 284.475 233.704 281.337 234.271C280.213 234.423 279.112 234.714 278.06 235.138C275.52 236.287 273.907 238.865 272.942 241.487C268.111 254.588 275.991 269.397 272.832 283C272.117 286.063 270.857 288.972 269.981 291.999C282.398 292.433 294.49 286.674 306.869 287.653C309.455 287.852 312.364 288.6 313.579 290.886C313.649 290.834 313.718 290.78 313.785 290.723C314.193 290.379 314.529 289.958 314.774 289.484C315.02 289.01 315.169 288.492 315.214 287.96C315.259 287.428 315.199 286.892 315.037 286.383C314.876 285.875 314.615 285.403 314.271 284.995C313.876 284.637 313.514 284.245 313.188 283.824C312.858 283.19 312.694 282.483 312.71 281.769C311.795 267.12 308.279 252.751 302.326 239.336C301.965 238.362 301.409 237.472 300.692 236.721C299.523 235.535 297.653 235.204 296.243 234.303Z" fill="#FECF28"/>
<path d="M316.95 433.815L314.798 450.013L251.294 449.418L254.472 425.51L316.95 433.815Z" fill="#FFB6B6"/>
<path d="M333.201 431.77L326.259 484L325.598 483.912C320.207 483.195 315.321 480.366 312.015 476.047C308.709 471.728 307.255 466.273 307.971 460.882L307.971 460.88L312.211 428.98L333.201 431.77Z" fill="#2F2E41"/>
<path d="M167.552 367.668C167.552 368.404 166.396 367.668 166.29 366.879C165.481 360.921 160.752 356.009 155.244 353.623C149.735 351.237 143.46 351.112 137.496 351.679C128.474 352.533 118.348 355.987 115.049 364.419C114.268 366.39 106.956 383.942 107.669 387.889C109.592 398.42 116.794 407.427 125.521 413.665C134.248 419.903 144.444 423.629 154.616 426.99C181.508 435.86 209.1 442.45 237.098 446.69C241.634 447.375 246.215 448.008 250.559 449.466C254.447 450.77 258.086 452.721 261.886 454.253C270.723 457.802 280.231 459.069 289.65 460.314C291.255 460.521 293.096 460.668 294.282 459.578C295.814 458.159 295.307 455.682 294.871 453.642C293.272 445.886 294.614 437.812 298.634 430.99C300.211 428.339 302.261 425.621 301.963 422.553C301.61 418.974 298.045 416.44 294.496 415.866C290.946 415.291 287.338 416.138 283.772 416.602C282.55 416.883 281.27 416.756 280.127 416.241C279.597 415.883 279.117 415.458 278.698 414.975C276.243 412.606 273.1 411.076 269.721 410.603C266.342 410.131 262.9 410.741 259.89 412.346C258.571 413.082 256.578 411.44 255.206 410.822L239.718 403.81C221.926 395.762 204.046 387.675 185.222 382.579C183.72 382.283 182.293 381.69 181.024 380.833C180.089 380.097 179.419 379.098 178.557 378.278C176.679 376.503 174.062 375.795 171.811 374.536C169.56 373.277 167.036 370.193 167.552 367.668Z" fill="#2F2E41"/>
<path d="M207.645 357.025C213.741 357.025 218.684 352.083 218.684 345.986C218.684 339.89 213.741 334.948 207.645 334.948C201.548 334.948 196.606 339.89 196.606 345.986C196.606 352.083 201.548 357.025 207.645 357.025Z" fill="#FBBEBE"/>
<path d="M232.088 357.025C238.185 357.025 243.127 352.083 243.127 345.986C243.127 339.89 238.185 334.948 232.088 334.948C225.991 334.948 221.049 339.89 221.049 345.986C221.049 352.083 225.991 357.025 232.088 357.025Z" fill="#FBBEBE"/>
<path d="M300.228 370.861H148.571C146.8 370.859 145.103 370.155 143.851 368.903C142.599 367.651 141.894 365.953 141.892 364.183V272.177C141.894 270.406 142.599 268.708 143.851 267.456C145.103 266.205 146.8 265.5 148.571 265.498H300.228C301.999 265.5 303.696 266.205 304.948 267.456C306.2 268.708 306.905 270.406 306.907 272.177V364.183C306.905 365.953 306.2 367.651 304.948 368.903C303.696 370.155 301.999 370.859 300.228 370.861Z" fill="#3F3D56"/>
<path d="M224.031 322.598C226.472 322.598 228.45 320.62 228.45 318.18C228.45 315.739 226.472 313.761 224.031 313.761C221.591 313.761 219.613 315.739 219.613 318.18C219.613 320.62 221.591 322.598 224.031 322.598Z" fill="white"/>
<path d="M1011.25 142.657H814.216C813.171 142.656 812.169 142.203 811.43 141.398C810.691 140.594 810.275 139.503 810.274 138.365V97.9331H811.851V138.365C811.852 139.048 812.101 139.702 812.544 140.185C812.988 140.668 813.589 140.939 814.216 140.94H1011.25C1011.88 140.939 1012.48 140.668 1012.93 140.185C1013.37 139.702 1013.62 139.048 1013.62 138.365V97.6506H1015.2V138.365C1015.2 139.503 1014.78 140.594 1014.04 141.398C1013.3 142.203 1012.3 142.656 1011.25 142.657Z" fill="#3F3D56"/>
<path d="M1082.68 97.0747H619.665V98.7915H1082.68V97.0747Z" fill="#3F3D56"/>
<path d="M619.698 112.566C627.189 112.566 633.261 105.954 633.261 97.7991C633.261 89.6437 627.189 83.0325 619.698 83.0325C612.207 83.0325 606.134 89.6437 606.134 97.7991C606.134 105.954 612.207 112.566 619.698 112.566Z" fill="#FECF28"/>
<path d="M757.53 112.566C765.021 112.566 771.094 105.954 771.094 97.7991C771.094 89.6437 765.021 83.0325 757.53 83.0325C750.039 83.0325 743.966 89.6437 743.966 97.7991C743.966 105.954 750.039 112.566 757.53 112.566Z" fill="#FECF28"/>
<path d="M851.07 155.968C858.561 155.968 864.634 149.357 864.634 141.202C864.634 133.046 858.561 126.435 851.07 126.435C843.579 126.435 837.506 133.046 837.506 141.202C837.506 149.357 843.579 155.968 851.07 155.968Z" fill="#3F3D56"/>
<path d="M922.181 155.968C929.672 155.968 935.745 149.357 935.745 141.202C935.745 133.046 929.672 126.435 922.181 126.435C914.691 126.435 908.618 133.046 908.618 141.202C908.618 149.357 914.691 155.968 922.181 155.968Z" fill="#CCCCCC"/>
<path d="M887.722 112.566C895.213 112.566 901.286 105.954 901.286 97.7991C901.286 89.6437 895.213 83.0325 887.722 83.0325C880.231 83.0325 874.158 89.6437 874.158 97.7991C874.158 105.954 880.231 112.566 887.722 112.566Z" fill="#FECF28"/>
<path d="M1080.82 112.566C1088.31 112.566 1094.39 105.954 1094.39 97.7991C1094.39 89.6437 1088.31 83.0325 1080.82 83.0325C1073.33 83.0325 1067.26 89.6437 1067.26 97.7991C1067.26 105.954 1073.33 112.566 1080.82 112.566Z" fill="#FECF28"/>
<path d="M1014.41 112.566C1021.9 112.566 1027.97 105.954 1027.97 97.7991C1027.97 89.6437 1021.9 83.0325 1014.41 83.0325C1006.92 83.0325 1000.84 89.6437 1000.84 97.7991C1000.84 105.954 1006.92 112.566 1014.41 112.566Z" fill="#FECF28"/>
<path d="M661.758 98.7914C661.549 98.7914 661.349 98.701 661.201 98.54C661.053 98.379 660.97 98.1607 660.97 97.933V55.5593C660.971 54.4213 661.387 53.3304 662.126 52.5257C662.865 51.7211 663.867 51.2684 664.912 51.2671H703.292C703.501 51.2671 703.701 51.3576 703.849 51.5186C703.997 51.6796 704.08 51.8979 704.08 52.1256C704.08 52.3532 703.997 52.5716 703.849 52.7326C703.701 52.8936 703.501 52.984 703.292 52.984H664.912C664.285 52.9847 663.684 53.2563 663.24 53.7391C662.797 54.2219 662.547 54.8765 662.547 55.5593V97.933C662.547 98.1607 662.464 98.379 662.316 98.54C662.168 98.701 661.967 98.7914 661.758 98.7914Z" fill="#3F3D56"/>
<path d="M705.095 66.5713C712.586 66.5713 718.659 59.9601 718.659 51.8047C718.659 43.6493 712.586 37.0381 705.095 37.0381C697.604 37.0381 691.532 43.6493 691.532 51.8047C691.532 59.9601 697.604 66.5713 705.095 66.5713Z" fill="#E6E6E6"/>
<path d="M965.327 97.933H963.75V55.5593C963.751 54.4213 964.167 53.3304 964.906 52.5257C965.645 51.7211 966.647 51.2684 967.692 51.2671H1006.07V52.984H967.692C967.065 52.9847 966.464 53.2563 966.02 53.7391C965.577 54.2219 965.327 54.8765 965.327 55.5593V97.933Z" fill="#3F3D56"/>
</svg>
