<svg width="77" height="77" viewBox="0 0 77 77" fill="none" xmlns="http://www.w3.org/2000/svg">
<path d="M75.3592 57.4463L73.9929 55.6087C73.3799 54.7843 73.1584 53.7302 73.3999 52.7316C73.9568 50.4294 74.6447 45.8933 72.5729 41.8175C72.1188 40.9238 71.7838 39.971 71.6183 38.9823C70.4648 32.0956 73.9394 22.8153 74.006 22.6046C75.2233 18.7569 75.7066 17.2215 72.7653 15.8066C69.5641 14.2666 66.7197 16.0455 65.0591 19.0637C64.8335 19.4733 61.4916 25.6736 60.7258 33.7306C55.7767 27.0744 44.0073 11.2448 40.0953 5.98358C38.6347 4.01903 35.9029 3.41386 33.8147 4.69188C31.42 6.15773 30.8457 9.32075 32.4829 11.5228C32.471 11.5068 30.0065 8.19222 30.0771 8.28712C28.5441 6.22526 25.6294 5.681 23.5287 7.16024C21.3562 8.69031 20.8834 11.6996 22.4592 13.8189C25.2679 17.5966 24.6222 16.7281 24.9283 17.1397C23.3086 14.9613 20.1645 14.5847 18.0705 16.389C16.1901 18.0091 15.9504 20.8426 17.4315 22.8346L21.9922 28.9687C20.3552 26.7668 17.1608 26.4059 15.0673 28.2767C13.242 29.9079 13.0349 32.6984 14.4955 34.6629C15.2458 35.6719 35.7889 63.3018 36.9305 64.8373C39.2801 67.9973 42.4903 70.1396 45.9954 71.1808C49.2935 72.1606 50.6391 74.7637 51.0244 75.1712L51.1829 75.3845C52.5024 77.1592 55.0109 77.5283 56.7858 76.2088L74.5412 63.0075C76.3026 61.6976 76.6688 59.2079 75.3592 57.4463Z" fill="#F4D44E"/>
<path d="M59.2909 12.8005C57.3516 8.71527 54.6113 5.0292 51.256 1.99371C50.7871 1.56961 50.7508 0.845632 51.1751 0.376864C51.5992 -0.092054 52.3232 -0.128298 52.7921 0.295954C56.3678 3.53041 59.29 7.45996 61.3594 11.8186C61.6305 12.3898 61.3872 13.0725 60.8162 13.3438C60.2475 13.6136 59.5633 13.3741 59.2909 12.8005Z" fill="#EAE9E8"/>
<path d="M52.8736 14.5901C51.5217 12.0186 49.7704 9.66212 47.694 7.62388C47.2428 7.18083 47.236 6.45625 47.6789 6.00492C48.122 5.5536 48.8466 5.54713 49.2977 5.98988C51.5401 8.19115 53.4359 10.7391 54.9001 13.5249C55.1943 14.0844 54.9791 14.7766 54.4194 15.0708C53.8585 15.3655 53.1671 15.1487 52.8736 14.5901Z" fill="#EAE9E8"/>
<path d="M9.53386 50.3514C5.95772 47.1162 3.03623 43.188 0.966556 38.8287C0.695251 38.2575 0.938583 37.5748 1.50962 37.3035C2.08065 37.0323 2.76357 37.2756 3.03473 37.8467C4.97447 41.9322 7.71383 45.6175 11.0696 48.6533C11.5386 49.0774 11.5748 49.8014 11.1506 50.2702C10.728 50.7379 10.004 50.7768 9.53386 50.3514Z" fill="#EAE9E8"/>
<path d="M13.0281 44.6574C10.7849 42.4554 8.89008 39.9078 7.42557 37.1224C7.13141 36.5628 7.34662 35.8707 7.90622 35.5764C8.46583 35.2824 9.15793 35.4974 9.45224 36.0569C10.8046 38.6295 12.5556 40.9853 14.6318 43.0233C15.083 43.4662 15.0898 44.1909 14.6469 44.6422C14.2047 45.093 13.4796 45.1006 13.0281 44.6574Z" fill="#EAE9E8"/>
<path d="M22.6625 14.0928C24.3959 16.424 38.1284 34.8938 37.664 34.2691C38.4209 35.287 39.8822 35.4495 40.8441 34.6228C41.7188 33.871 41.8633 32.5708 41.1751 31.6452L28.9416 15.1918C28.9364 15.1849 28.9315 15.1783 28.9272 15.1723L28.9105 15.1497C28.9039 15.1409 28.898 15.1329 28.8929 15.126L28.8803 15.1091C28.8803 15.1091 28.8801 15.1088 28.88 15.1088L26.5118 11.9239C25.2491 10.2255 25.3029 7.95595 26.4919 6.33384C22.7386 6.09006 19.8741 10.341 22.6625 14.0928Z" fill="#E8C842"/>
<path d="M30.8833 40.9267C31.6954 42.0188 33.2797 42.1549 34.2662 41.2174C35.0338 40.4877 35.1358 39.3001 34.504 38.4504C32.9029 36.2971 22.7046 22.5807 21.4842 20.9393C20.2128 19.2295 20.2107 16.9001 21.4247 15.2497C17.4237 15.0145 15.0075 19.5745 17.4313 22.8345C23.5137 31.0144 24.5541 32.4143 30.8833 40.9267Z" fill="#E8C842"/>
<path d="M55.2356 73.4893L55.077 73.276C54.6917 72.8685 53.3461 70.2655 50.048 69.2856C46.543 68.2442 43.3328 66.1021 40.9831 62.9421C39.8415 61.4066 19.2983 33.7767 18.5481 32.7677C17.279 31.0606 17.2698 28.7303 18.4866 27.0783C14.4975 26.8455 12.0595 31.3868 14.4953 34.6629C15.2456 35.6719 35.7888 63.3018 36.9302 64.8373C39.2799 67.9973 42.49 70.1395 45.9952 71.1808C49.2932 72.1606 50.6388 74.7637 51.0241 75.1712L51.1828 75.3845C52.5023 77.1593 55.0108 77.5283 56.7857 76.2088L58.2765 75.1004C57.1143 75.0494 55.9838 74.4957 55.2356 73.4893Z" fill="#E8C842"/>
<path d="M36.5358 9.6277C36.5358 9.6277 36.5335 9.62454 36.5358 9.6277C35.2711 7.92678 35.3272 5.65287 36.5215 4.03031C35.6957 3.97572 34.8541 4.13874 34.0847 4.54134L34.0844 4.54073C33.6851 4.74963 33.3234 5.01161 33.0139 5.30607C33.0135 5.30652 33.0129 5.30698 33.0123 5.30758H33.0124C31.3742 6.86532 31.0691 9.39971 32.3329 11.3092L32.4829 11.5231L46.031 29.7447C46.822 30.8087 48.3662 30.94 49.3256 30.0246C50.2106 29.18 50.3209 27.8056 49.5816 26.8309L36.5358 9.6277ZM35.2362 7.87986L35.1648 7.78391C35.1886 7.81564 35.2123 7.84782 35.2362 7.87986Z" fill="#E8C842"/>
<path d="M65.0591 19.0637C64.9184 19.3193 63.5645 21.8326 62.3799 25.6434L62.3787 25.6423C61.6654 27.9372 61.0135 30.7027 60.7258 33.7306C61.9814 35.3995 64.6365 34.5877 64.7442 32.502L64.7785 31.8354C65.5444 23.7782 68.8864 17.5781 69.1119 17.1684C69.5095 16.4458 69.9756 15.7952 70.4977 15.2433C68.2468 15.21 66.3146 16.7822 65.0591 19.0637Z" fill="#E8C842"/>
</svg>
