<svg width="37" height="37" viewBox="0 0 37 37" fill="none" xmlns="http://www.w3.org/2000/svg">
<path opacity="0.22" d="M36.9717 9.31833V28.2509C36.9717 28.8088 36.5241 29.2585 35.9688 29.2585H31.7418C31.1865 29.2585 30.7389 28.8088 30.7389 28.2509V20.6859C30.7389 19.8263 29.736 19.3596 29.0844 19.9174L24.7951 23.606L24.1378 24.1752L20.9025 26.9531L20.7495 27.084C20.3755 27.4085 19.8202 27.4085 19.4463 27.084L15.4006 23.606L15.14 23.3783L15.1116 23.3556L10.7714 19.6385L10.0688 19.0351C9.84779 18.8416 9.71747 18.5626 9.71747 18.2666V14.6122C9.71747 14.0543 10.1651 13.6046 10.7204 13.6046H12.7772C13.0152 13.6046 13.2475 13.69 13.4288 13.8494L18.0694 17.8397L19.4349 19.0123C19.8089 19.3368 20.3642 19.3368 20.7381 19.0123L21.8714 18.0389L30.7332 10.4226L32.909 8.55556C33.0904 8.40187 33.3227 8.31079 33.5607 8.31079H35.9631C36.5241 8.31079 36.9717 8.76048 36.9717 9.31833Z" fill="#3E3D3D"/>
<path d="M37 8.29367V27.2263C37 27.7841 36.5524 28.2338 35.9971 28.2338H31.7701C31.2149 28.2338 30.7672 27.7841 30.7672 27.2263V19.6612C30.7672 18.8017 29.7643 18.3349 29.1127 18.8927L24.8178 22.5814L24.1605 23.1506L20.9251 25.9284L20.7721 26.0594C20.3982 26.3838 19.8429 26.3838 19.4689 26.0594L15.4233 22.5814L15.1626 22.3537L15.1343 22.3309L10.7997 18.6138L10.0971 18.0104C9.87611 17.8169 9.74579 17.538 9.74579 17.242V13.5875C9.74579 13.0297 10.1934 12.58 10.7487 12.58H12.8055C13.0435 12.58 13.2758 12.6654 13.4571 12.8247L18.0977 16.8151L19.4632 17.9877C19.8372 18.3121 20.3925 18.3121 20.7665 17.9877L21.8997 17.0143L30.7672 9.39798L32.943 7.5309C33.1243 7.37721 33.3567 7.28613 33.5946 7.28613H35.9971C36.5524 7.28613 37 7.73582 37 8.29367Z" fill="#3E3D3D"/>
<path opacity="0.22" d="M36.8867 30.7385C36.8867 34.1994 34.0989 37 30.6539 37H6.23277C2.78775 37 0 34.1994 0 30.7385V7.17234C0 7.17234 0.0283308 6.80234 0.0283308 6.62019C0.0283308 6.37542 0.0453293 6.13065 0.0849923 5.89157C0.498622 3.27311 3.09939 1.20111 6.37443 0.882343C6.48775 0.870959 6.60674 0.859574 6.72006 0.853882H16.7718C17.6671 0.967728 18.4603 1.40604 19.0326 2.04927C19.5992 2.6925 19.9449 3.54065 19.9449 4.4685V14.5097C19.8825 14.6634 19.7126 14.7716 19.5199 14.7716C19.4689 14.7716 19.4236 14.7659 19.3783 14.7545L19.0893 14.4983L14.2277 10.2234L14.0407 10.0583C14.0181 10.0185 14.0011 9.97296 13.9954 9.92742V7.88957C13.9954 7.81557 13.9784 7.68465 13.9104 7.54234C13.8708 7.46265 13.8141 7.34311 13.6838 7.25773C13.5194 7.14957 13.3438 7.16665 13.2815 7.17234H10.3691C10.2557 7.15527 10.1028 7.14388 9.91577 7.14388C9.91577 7.14388 9.53614 7.14957 9.15084 7.25773C8.39724 7.46834 7.72297 8.12296 7.67764 8.1685C6.49341 9.33542 6.38576 11.3163 6.37443 11.5725V26.5205C6.36309 26.8677 6.38009 27.3857 6.54441 27.9777C6.65207 28.3591 6.77106 28.786 7.11103 29.23C7.65498 29.9359 8.40858 30.2205 8.81087 30.3685C9.04319 30.4539 9.2415 30.5051 9.37749 30.5393C9.53047 30.5677 9.70046 30.5848 9.88744 30.5962C10.1594 30.6076 10.4087 30.5962 10.6127 30.5677H36.7167C36.7734 30.6247 36.83 30.6816 36.8867 30.7385Z" fill="#3E3D3D"/>
<path d="M37 29.8846C37 33.3455 34.2123 36.1462 30.7672 36.1462H6.34611C2.90109 36.1462 0.113342 33.3455 0.113342 29.8846V6.31846C0.113342 6.31846 0.141673 5.94846 0.141673 5.76631C0.141673 5.52154 0.158672 5.27677 0.198335 5.03769C0.611964 2.41923 3.21273 0.347231 6.48777 0.0284615C6.60109 0.0170769 6.72008 0.00569231 6.8334 0H16.8852C17.7804 0.113846 18.5737 0.552154 19.146 1.19538C19.7126 1.83862 20.0582 2.68677 20.0582 3.61462V13.6558C19.9959 13.8095 19.8259 13.9177 19.6332 13.9177C19.5823 13.9177 19.5369 13.912 19.4916 13.9006L19.2026 13.6445L14.3411 9.36954L14.1541 9.20446C14.1314 9.16462 14.1144 9.11908 14.1087 9.07354V7.03569C14.1087 6.96169 14.0917 6.83077 14.0238 6.68846C13.9841 6.60877 13.9274 6.48923 13.7971 6.40385C13.6328 6.29569 13.4571 6.31277 13.3948 6.31846H10.4824C10.3691 6.30138 10.2161 6.29 10.0291 6.29C10.0291 6.29 9.64948 6.29569 9.26418 6.40385C8.51058 6.61446 7.83631 7.26908 7.79098 7.31462C6.60676 8.48154 6.4991 10.4625 6.48777 10.7186V25.6666C6.47644 26.0138 6.49343 26.5318 6.65775 27.1238C6.76541 27.5052 6.8844 27.9322 7.22437 28.3762C7.76832 29.082 8.52192 29.3666 8.92421 29.5146C9.15653 29.6 9.35484 29.6512 9.49083 29.6854C9.64382 29.7138 9.8138 29.7309 10.0008 29.7423C10.2728 29.7537 10.5221 29.7423 10.7261 29.7138H36.83C36.8867 29.7708 36.9434 29.8277 37 29.8846Z" fill="#3E3D3D"/>
</svg>
