<svg width="489" height="119" viewBox="0 0 489 119" fill="none" xmlns="http://www.w3.org/2000/svg">
<path d="M405.12 105.619H208.082C207.037 105.618 206.035 105.165 205.296 104.36C204.557 103.556 204.141 102.465 204.14 101.327V60.895H205.717V101.327C205.717 102.01 205.967 102.664 206.41 103.147C206.854 103.63 207.455 103.901 208.082 103.902H405.12C405.747 103.901 406.348 103.63 406.792 103.147C407.235 102.664 407.485 102.01 407.485 101.327V60.6125H409.062V101.327C409.061 102.465 408.645 103.556 407.906 104.36C407.167 105.165 406.165 105.618 405.12 105.619V105.619Z" fill="#3F3D56"/>
<path d="M476.547 60.0366H13.5303V61.7534H476.547V60.0366Z" fill="#3F3D56"/>
<path d="M13.5636 75.5276C21.0546 75.5276 27.1272 68.9163 27.1272 60.761C27.1272 52.6056 21.0546 45.9944 13.5636 45.9944C6.07263 45.9944 0 52.6056 0 60.761C0 68.9163 6.07263 75.5276 13.5636 75.5276Z" fill="#FECF28"/>
<path d="M151.396 75.5276C158.887 75.5276 164.959 68.9163 164.959 60.761C164.959 52.6056 158.887 45.9944 151.396 45.9944C143.905 45.9944 137.832 52.6056 137.832 60.761C137.832 68.9163 143.905 75.5276 151.396 75.5276Z" fill="#FECF28"/>
<path d="M244.936 118.93C252.427 118.93 258.499 112.319 258.499 104.164C258.499 96.0083 252.427 89.3971 244.936 89.3971C237.445 89.3971 231.372 96.0083 231.372 104.164C231.372 112.319 237.445 118.93 244.936 118.93Z" fill="#3F3D56"/>
<path d="M316.047 118.93C323.538 118.93 329.611 112.319 329.611 104.164C329.611 96.0083 323.538 89.3971 316.047 89.3971C308.556 89.3971 302.484 96.0083 302.484 104.164C302.484 112.319 308.556 118.93 316.047 118.93Z" fill="#CCCCCC"/>
<path d="M281.588 75.5276C289.079 75.5276 295.151 68.9163 295.151 60.761C295.151 52.6056 289.079 45.9944 281.588 45.9944C274.097 45.9944 268.024 52.6056 268.024 60.761C268.024 68.9163 274.097 75.5276 281.588 75.5276Z" fill="#FECF28"/>
<path d="M474.688 75.5276C482.179 75.5276 488.252 68.9163 488.252 60.761C488.252 52.6056 482.179 45.9944 474.688 45.9944C467.197 45.9944 461.125 52.6056 461.125 60.761C461.125 68.9163 467.197 75.5276 474.688 75.5276Z" fill="#FECF28"/>
<path d="M408.274 75.5276C415.765 75.5276 421.837 68.9163 421.837 60.761C421.837 52.6056 415.765 45.9944 408.274 45.9944C400.783 45.9944 394.71 52.6056 394.71 60.761C394.71 68.9163 400.783 75.5276 408.274 75.5276Z" fill="#FECF28"/>
<path d="M55.6239 61.7534C55.4148 61.7533 55.2143 61.6629 55.0664 61.5019C54.9185 61.3409 54.8355 61.1226 54.8354 60.8949V18.5212C54.8366 17.3832 55.2524 16.2923 55.9915 15.4876C56.7306 14.683 57.7327 14.2304 58.7779 14.2291H97.1575C97.3666 14.2291 97.5672 14.3195 97.7151 14.4805C97.8629 14.6415 97.946 14.8598 97.946 15.0875C97.946 15.3152 97.8629 15.5335 97.7151 15.6945C97.5672 15.8555 97.3666 15.9459 97.1575 15.9459H58.7779C58.1507 15.9467 57.5495 16.2182 57.106 16.701C56.6626 17.1838 56.4131 17.8384 56.4124 18.5212V60.8949C56.4124 61.1226 56.3293 61.3409 56.1815 61.5019C56.0336 61.6629 55.8331 61.7533 55.6239 61.7534V61.7534Z" fill="#3F3D56"/>
<path d="M98.9611 29.5332C106.452 29.5332 112.525 22.922 112.525 14.7666C112.525 6.61123 106.452 0 98.9611 0C91.4701 0 85.3975 6.61123 85.3975 14.7666C85.3975 22.922 91.4701 29.5332 98.9611 29.5332Z" fill="#E6E6E6"/>
<path d="M359.192 60.8949H357.615V18.5212C357.617 17.3832 358.032 16.2923 358.772 15.4876C359.511 14.683 360.513 14.2304 361.558 14.2291H399.938V15.9459H361.558C360.931 15.9467 360.33 16.2182 359.886 16.701C359.443 17.1838 359.193 17.8384 359.192 18.5212V60.8949Z" fill="#3F3D56"/>
</svg>
