<svg width="1440" height="530" viewBox="0 0 1440 530" fill="none" xmlns="http://www.w3.org/2000/svg">
<rect y="85" width="1440" height="373" fill="#F4F4F4"/>
<path d="M1440 503.984L1392 500.755C1344 497.282 1248 491.19 1152 484.488C1056 477.786 960 471.694 864 484.488C768 497.282 672 530.182 576 529.999C480 530.182 384 497.282 288 484.488C192 471.694 96 477.786 48 481.259L0 484.488V426H48C96 426 192 426 288 426C384 426 480 426 576 426C672 426 768 426 864 426C960 426 1056 426 1152 426C1248 426 1344 426 1392 426H1440V503.984Z" fill="#F4F4F4"/>
<path d="M0 26.0158L48.3 29.2448C96.6 32.7176 193.2 38.8101 289.8 45.5118C386.4 52.2136 483 58.3061 579.6 45.5118C676.2 32.7176 772.8 -0.182017 869.4 0.000758482C966 -0.182017 1062.6 32.7176 1159.2 45.5118C1255.8 58.3061 1352.4 52.2136 1400.7 48.7409L1449 45.5118V104H1400.7C1352.4 104 1255.8 104 1159.2 104C1062.6 104 966 104 869.4 104C772.8 104 676.2 104 579.6 104C483 104 386.4 104 289.8 104C193.2 104 96.6 104 48.3 104H0V26.0158Z" fill="#F4F4F4"/>
</svg>
