<svg width="1440" height="530" viewBox="0 0 1440 530" fill="none" xmlns="http://www.w3.org/2000/svg">
<rect y="85" width="1440" height="373" fill="#F4F4F4"/>
<path d="M1440 503.984L1392 500.755C1344 497.282 1248 491.19 1152 484.488C1056 477.786 960 471.694 864 484.488C768 497.282 672 530.182 576 529.999C480 530.182 384 497.282 288 484.488C192 471.694 96 477.786 48 481.259L0 484.488V426H48C96 426 192 426 288 426C384 426 480 426 576 426C672 426 768 426 864 426C960 426 1056 426 1152 426C1248 426 1344 426 1392 426H1440V503.984Z" fill="#F4F4F4"/>
<path d="M9 26.0158L57 29.2448C105 32.7176 201 38.8101 297 45.5118C393 52.2136 489 58.3061 585 45.5118C681 32.7176 777 -0.182017 873 0.000758482C969 -0.182017 1065 32.7176 1161 45.5118C1257 58.3061 1353 52.2136 1401 48.7409L1449 45.5118V104H1401C1353 104 1257 104 1161 104C1065 104 969 104 873 104C777 104 681 104 585 104C489 104 393 104 297 104C201 104 105 104 57 104H9V26.0158Z" fill="#F4F4F4"/>
</svg>
