<svg width="421" height="314" viewBox="0 0 421 314" fill="none" xmlns="http://www.w3.org/2000/svg">
<path d="M420.074 284.286H0.566061C0.410486 284.038 0.266687 282.967 0.162227 281.277C0.0577674 279.587 0 277.397 0 275.128C0 272.858 0.0577674 270.669 0.162227 268.979C0.266687 267.289 0.410486 266.217 0.566061 265.97H420.074C420.229 266.217 420.373 267.289 420.477 268.979C420.582 270.669 420.64 272.858 420.64 275.128C420.64 277.397 420.582 279.587 420.477 281.277C420.373 282.967 420.229 284.038 420.074 284.286V284.286Z" fill="#CACACA"/>
<path d="M56.4706 255.473L53.876 268.303L102.125 284.417L105.955 265.482L56.4706 255.473Z" fill="#FFB6B6"/>
<path d="M61.3212 253.048L56.2109 278.314L56.2107 278.315C55.3466 282.585 52.8217 286.337 49.1914 288.746C45.5611 291.154 41.1228 292.022 36.8526 291.159L36.3293 291.053L44.6966 249.686L61.3212 253.048Z" fill="#2F2E41"/>
<path d="M111.147 78.7561C129.241 78.7561 143.908 64.0884 143.908 45.9948C143.908 27.9013 129.241 13.2336 111.147 13.2336C93.0535 13.2336 78.3857 27.9013 78.3857 45.9948C78.3857 64.0884 93.0535 78.7561 111.147 78.7561Z" fill="#FEB8B8"/>
<path d="M141.746 17.7311C136.848 9.77742 129.181 3.91662 120.221 1.27693L116.199 4.21192V0.400904C114.047 0.0715543 111.869 -0.055323 109.693 0.021946L106.224 3.16159V0.282799C101.086 0.921228 96.1363 2.61722 91.6868 5.26384C87.2373 7.91047 83.3845 11.4503 80.3712 15.6601C72.8357 26.5235 71.5637 41.6368 78.9754 52.5874C81.0098 46.3346 83.4793 40.4678 85.5143 34.2156C87.1134 34.4336 88.7341 34.4415 90.3352 34.239L92.8104 28.4631L93.502 33.9946C101.175 33.3264 112.555 31.8586 119.828 30.5139L119.121 26.2702L123.352 29.7964C125.581 29.2836 126.904 28.8181 126.794 28.4625C132.204 37.1835 138.824 42.7535 144.233 51.4745C146.288 39.1774 148.653 28.9526 141.746 17.7311Z" fill="#2F2E41"/>
<path d="M121.806 260.378C168.395 260.378 206.162 249.814 206.162 236.782C206.162 223.751 168.395 213.187 121.806 213.187C75.2183 213.187 37.4512 223.751 37.4512 236.782C37.4512 249.814 75.2183 260.378 121.806 260.378Z" fill="#2F2E41"/>
<path d="M181.607 130.242C180.48 123.464 179.318 116.556 176.168 110.451C174.098 106.451 170.812 102.64 166.382 101.85C165.509 101.772 164.652 101.573 163.834 101.26C162.536 100.634 145.092 90.6768 142.32 88.9425C139.939 87.4536 136.181 84.6968 134.287 84.6968C132.38 84.6549 125.071 86.356 96.5426 84.1259C91.7438 86.0522 87.0968 88.3369 82.6411 90.9608C82.5492 90.9003 53.0309 106.751 51.9219 106.71C49.8218 106.621 47.8697 107.966 46.6657 109.659C45.462 111.353 44.8973 113.449 44.3062 115.476C50.7534 129.834 56.6524 144.21 63.1003 158.568C63.4022 159.109 63.5626 159.717 63.5666 160.336C63.437 160.979 63.1627 161.584 62.7645 162.105C59.6025 167.184 59.703 173.573 60.0484 179.542C60.3942 185.512 60.8216 191.818 58.1537 197.169C57.428 198.638 56.4843 199.983 55.7941 201.452C54.1779 204.779 53.5938 215.42 54.5378 218.995L172.814 222.384C170.271 215.393 181.607 130.242 181.607 130.242Z" fill="#FECF28"/>
<path d="M34.0827 159.204C33.8467 160.912 33.8229 162.641 34.012 164.354L35.7072 188.7C35.8663 190.994 36.023 193.283 36.2383 195.572C36.6451 200.014 37.2527 204.421 38.0068 208.821C38.0238 209.446 38.288 210.038 38.7414 210.468C39.1948 210.899 39.8003 211.131 40.4251 211.116C47.8874 212.695 55.5972 212.631 63.2129 212.201C74.8342 211.553 104.566 210.325 106.382 207.966C108.199 205.606 107.14 201.789 104.772 199.881C102.403 197.973 63.1681 193.322 63.1681 193.322C63.5515 190.284 64.7079 187.423 65.805 184.538C67.7756 179.422 69.616 174.138 69.6514 168.658C69.6868 163.178 67.6221 157.416 63.1327 154.276C59.4398 151.699 54.6852 151.221 50.1851 151.327C46.911 151.421 41.2538 150.636 38.2632 151.917C35.8966 152.959 34.5248 156.887 34.0827 159.204Z" fill="#FBBEBE"/>
<path d="M181.817 214.237C183.781 213.488 185.946 213.759 188.052 214.042C194.83 214.968 201.708 215.918 207.991 218.626C210.94 219.889 213.748 221.575 215.742 224.057C217.511 226.293 218.544 229.031 219.524 231.726L221.789 237.932C222.752 240.264 223.416 242.707 223.765 245.206C224.473 252.633 219.394 259.634 213.006 263.493C206.617 267.351 199.096 268.725 191.769 270.164C184.442 271.604 177.086 273.196 169.79 274.883C166.386 275.767 162.933 276.446 159.449 276.918C151.638 277.803 143.474 276.5 136.053 279.084C133.104 280.116 130.207 281.65 127.148 282.363C125.114 282.791 123.058 283.104 120.989 283.301L106.944 284.906C104.088 285.288 101.212 285.508 98.3314 285.566C92.1968 285.566 86.1619 284.114 80.2048 282.661C79.5718 282.55 78.9692 282.306 78.4363 281.947C77.4927 281.204 77.2862 279.888 77.1504 278.697C76.5487 273.423 76.0224 268.144 75.5714 262.859C75.4299 261.142 75.3238 259.284 76.2617 257.839C77.4415 256.07 79.7424 255.515 81.8425 255.172C90.7474 253.715 99.7685 253.089 108.789 253.302C112.216 249.875 117.868 249.857 122.357 247.993C124.009 247.234 125.607 246.365 127.141 245.391C135.171 240.706 144.145 237.871 153.409 237.092C155.224 237.036 157.026 236.779 158.784 236.325C162.257 235.245 165.426 232.307 168.994 233.027C169.437 231.806 169.744 230.172 170.763 229.334C171.268 228.904 171.895 228.615 172.361 228.155C173.347 227.158 173.435 225.588 173.287 224.196C173.14 222.804 172.809 221.377 173.169 220.02C173.319 219.506 173.539 219.016 173.824 218.563C175.588 215.511 178.26 213.942 181.817 214.237Z" fill="#2F2E41"/>
<path d="M43.9654 115.913C43.3908 116.514 42.9453 117.227 42.6561 118.007C37.8878 128.753 35.0714 140.263 34.3387 151.997C34.3515 152.569 34.2197 153.135 33.9553 153.643C33.6946 153.98 33.4044 154.294 33.0881 154.581C32.8124 154.907 32.6037 155.285 32.4741 155.693C32.3444 156.1 32.2963 156.53 32.3325 156.956C32.3686 157.382 32.4884 157.797 32.6848 158.176C32.8813 158.556 33.1507 158.894 33.4776 159.169C33.5312 159.215 33.5862 159.258 33.6427 159.3C34.6159 157.468 36.9459 156.869 39.0169 156.71C48.9328 155.926 58.6189 160.539 68.5646 160.191C67.8629 157.766 66.8536 155.436 66.2814 152.983C63.7506 142.087 70.0627 130.225 66.193 119.73C65.4199 117.63 64.1283 115.565 62.0933 114.645C61.2507 114.305 60.3689 114.072 59.4684 113.95C56.9553 113.496 51.9525 111.555 49.5228 112.334C48.6259 112.623 48.2722 113.466 47.5288 113.976C46.3995 114.697 44.9014 114.963 43.9654 115.913Z" fill="#FECF28"/>
<path d="M181.678 151.917C178.687 150.636 173.03 151.421 169.756 151.327C165.256 151.221 160.501 151.699 156.809 154.276C152.319 157.416 150.254 163.178 150.29 168.658C150.325 174.138 152.166 179.422 154.136 184.538C155.233 187.423 156.39 190.284 156.773 193.322C156.773 193.322 117.538 197.973 115.17 199.881C112.801 201.789 111.743 205.606 113.559 207.966C115.376 210.325 172.054 212.695 179.516 211.116C180.141 211.131 180.746 210.899 181.2 210.468C181.653 210.038 181.917 209.446 181.934 208.821C182.689 204.421 183.296 200.014 183.703 195.572C183.918 193.283 184.075 190.994 184.234 188.7L185.929 164.354C186.118 162.641 186.095 160.912 185.859 159.204C185.416 156.887 184.045 152.959 181.678 151.917Z" fill="#FBBEBE"/>
<path d="M172.412 113.976C171.669 113.466 171.315 112.623 170.419 112.334C167.989 111.555 162.986 113.496 160.473 113.95C159.572 114.072 158.691 114.305 157.848 114.645C155.813 115.565 154.521 117.63 153.748 119.73C149.879 130.225 156.191 142.087 153.66 152.983C153.088 155.436 152.078 157.766 151.377 160.191C161.322 160.539 171.008 155.926 180.924 156.71C182.995 156.869 185.325 157.468 186.299 159.3C186.355 159.258 186.41 159.215 186.464 159.169C186.791 158.894 187.06 158.556 187.256 158.176C187.453 157.797 187.573 157.382 187.609 156.956C187.645 156.53 187.597 156.1 187.467 155.693C187.338 155.285 187.129 154.907 186.853 154.581C186.537 154.294 186.247 153.98 185.986 153.643C185.722 153.135 185.59 152.569 185.603 151.997C184.87 140.263 182.053 128.753 177.285 118.007C176.996 117.227 176.55 116.514 175.976 115.913C175.04 114.963 173.542 114.697 172.412 113.976Z" fill="#FECF28"/>
<path d="M188.999 273.788L187.275 286.762L136.408 286.286L138.953 267.136L188.999 273.788Z" fill="#FFB6B6"/>
<path d="M202.016 272.15L196.456 313.987L195.927 313.916C191.608 313.342 187.694 311.076 185.046 307.616C182.398 304.157 181.233 299.787 181.807 295.468L181.807 295.467L185.203 269.915L202.016 272.15Z" fill="#2F2E41"/>
<path d="M69.3293 220.803C69.3293 221.393 68.4034 220.803 68.3187 220.171C67.6701 215.399 63.8824 211.464 59.4701 209.553C55.0578 207.642 50.0316 207.541 45.2536 207.995C38.0276 208.679 29.9161 211.446 27.2735 218.201C26.6482 219.78 20.7909 233.839 21.3624 237.001C22.9023 245.436 28.6712 252.651 35.6617 257.647C42.6521 262.644 50.8199 265.629 58.9674 268.321C80.5086 275.426 102.61 280.704 125.036 284.101C128.67 284.65 132.339 285.157 135.819 286.325C138.934 287.369 141.848 288.932 144.892 290.159C151.971 293.001 159.587 294.017 167.131 295.014C168.417 295.18 169.892 295.297 170.842 294.424C172.069 293.287 171.663 291.304 171.314 289.67C170.033 283.457 171.107 276.99 174.328 271.525C175.591 269.401 177.233 267.224 176.995 264.767C176.712 261.9 173.856 259.87 171.013 259.41C168.169 258.95 165.279 259.629 162.423 260C161.445 260.225 160.419 260.123 159.503 259.711C159.079 259.424 158.694 259.083 158.359 258.696C156.392 256.799 153.875 255.573 151.168 255.195C148.462 254.817 145.705 255.305 143.293 256.591C142.237 257.181 140.64 255.865 139.541 255.37L127.136 249.754C112.884 243.306 98.5612 236.829 83.4832 232.747C82.2801 232.51 81.1367 232.035 80.1206 231.348C79.3716 230.759 78.8347 229.959 78.1444 229.301C76.6399 227.88 74.5443 227.313 72.7411 226.305C70.9379 225.296 68.9162 222.826 69.3293 220.803Z" fill="#2F2E41"/>
<path d="M101.444 212.278C106.328 212.278 110.286 208.319 110.286 203.436C110.286 198.552 106.328 194.594 101.444 194.594C96.5607 194.594 92.6019 198.552 92.6019 203.436C92.6019 208.319 96.5607 212.278 101.444 212.278Z" fill="#FBBEBE"/>
<path d="M121.024 212.278C125.907 212.278 129.866 208.319 129.866 203.436C129.866 198.552 125.907 194.594 121.024 194.594C116.14 194.594 112.181 198.552 112.181 203.436C112.181 208.319 116.14 212.278 121.024 212.278Z" fill="#FBBEBE"/>
<path d="M175.605 223.361H54.1251C52.7068 223.359 51.3471 222.795 50.3442 221.792C49.3413 220.789 48.7771 219.43 48.7754 218.011V144.313C48.7771 142.895 49.3413 141.535 50.3442 140.532C51.3471 139.529 52.7068 138.965 54.1251 138.964H175.605C177.023 138.965 178.383 139.529 179.386 140.532C180.388 141.535 180.953 142.895 180.954 144.313V218.011C180.953 219.43 180.388 220.789 179.386 221.792C178.383 222.795 177.023 223.359 175.605 223.361Z" fill="#3F3D56"/>
<path d="M114.57 184.702C116.525 184.702 118.11 183.117 118.11 181.162C118.11 179.207 116.525 177.623 114.57 177.623C112.615 177.623 111.031 179.207 111.031 181.162C111.031 183.117 112.615 184.702 114.57 184.702Z" fill="white"/>
</svg>
