<svg width="99" height="99" viewBox="0 0 99 99" fill="none" xmlns="http://www.w3.org/2000/svg">
<rect x="22" y="14" width="51" height="65" fill="white"/>
<path d="M49.4979 0C22.1634 0 0 22.1634 0 49.4979C0 76.8324 22.1634 99 49.4979 99C76.8324 99 99 76.8324 99 49.4979C99 22.1634 76.8324 0 49.4979 0ZM59.8023 76.715C57.2545 77.7208 55.2263 78.4834 53.7051 79.0114C52.1882 79.5394 50.424 79.8034 48.4168 79.8034C45.3326 79.8034 42.9314 79.0491 41.2217 77.5448C39.512 76.0404 38.6613 74.1337 38.6613 71.8164C38.6613 70.9154 38.7242 69.9935 38.8499 69.0549C38.9798 68.1162 39.1851 67.0602 39.4659 65.8743L42.6549 54.6103C42.9356 53.5291 43.1787 52.5025 43.3714 51.5471C43.5642 50.5832 43.6564 49.6991 43.6564 48.8945C43.6564 47.4613 43.3589 46.4556 42.768 45.8899C42.1688 45.3242 41.0415 45.0476 39.3611 45.0476C38.5398 45.0476 37.6933 45.1691 36.8259 45.4248C35.9669 45.6888 35.221 45.9276 34.6091 46.1623L35.4514 42.6926C37.5383 41.8419 39.5371 41.1128 41.4438 40.5093C43.3505 39.8975 45.1524 39.5958 46.8495 39.5958C49.9128 39.5958 52.2762 40.3417 53.9398 41.8168C55.5951 43.296 56.429 45.2194 56.429 47.5829C56.429 48.0731 56.3703 48.9364 56.2571 50.1684C56.144 51.4046 55.9303 52.5318 55.6202 53.5669L52.448 64.7973C52.1882 65.6983 51.9577 66.7291 51.7482 67.8815C51.5429 69.0339 51.4423 69.9139 51.4423 70.5048C51.4423 71.9966 51.7733 73.0149 52.4438 73.5554C53.1059 74.096 54.2667 74.3684 55.9093 74.3684C56.6846 74.3684 57.552 74.2301 58.5326 73.9619C59.5048 73.6937 60.2088 73.4549 60.653 73.2495L59.8023 76.715ZM59.2408 31.131C57.7615 32.5055 55.9806 33.1928 53.8979 33.1928C51.8194 33.1928 50.0259 32.5055 48.5341 31.131C47.0507 29.7566 46.3006 28.0846 46.3006 26.1318C46.3006 24.1832 47.0549 22.507 48.5341 21.12C50.0259 19.7288 51.8194 19.0373 53.8979 19.0373C55.9806 19.0373 57.7657 19.7288 59.2408 21.12C60.72 22.507 61.4617 24.1832 61.4617 26.1318C61.4617 28.0888 60.72 29.7566 59.2408 31.131Z" fill="#FECF28"/>
</svg>
