<svg width="266" height="260" viewBox="0 0 266 260" fill="none" xmlns="http://www.w3.org/2000/svg">
<path d="M265.538 62.2472V198.43C265.538 202.443 262.31 205.677 258.305 205.677H227.824C223.819 205.677 220.591 202.443 220.591 198.43V144.014C220.591 137.832 213.359 134.474 208.66 138.487L177.688 165.019L172.948 169.113L149.617 189.095L148.514 190.036C145.817 192.37 141.813 192.37 139.116 190.036L109.942 165.019L108.062 163.381L107.858 163.217L76.6 136.48L71.5333 132.14C69.9398 130.748 69 128.742 69 126.613V100.326C69 96.3134 72.228 93.0787 76.2323 93.0787H91.0645C92.7806 93.0787 94.4559 93.6929 95.7634 94.8394L129.228 123.542L139.075 131.976C141.772 134.31 145.776 134.31 148.473 131.976L156.645 124.975L220.591 70.1906L236.282 56.7606C237.589 55.6551 239.265 55 240.981 55H258.305C262.31 55 265.538 58.2346 265.538 62.2472Z" fill="white"/>
<path d="M266 214.961C266 239.855 245.897 260 221.054 260H44.9462C20.1032 260 0 239.855 0 214.961V45.4488C0 45.4488 0.204301 42.7874 0.204301 41.4772C0.204301 39.7165 0.326882 37.9559 0.612903 36.2362C3.5957 17.4016 22.3505 2.49764 45.9677 0.204724C46.7849 0.122835 47.643 0.0409449 48.4602 0H120.946C127.402 0.818898 133.123 3.97165 137.249 8.59843C141.335 13.2252 143.828 19.326 143.828 26V98.2268C143.378 99.3323 142.153 100.11 140.763 100.11C140.396 100.11 140.069 100.069 139.742 99.9874L137.658 98.1449L102.6 67.3953L101.252 66.2079C101.088 65.9213 100.966 65.5937 100.925 65.2661V50.6079C100.925 50.0756 100.802 49.1339 100.312 48.1102C100.026 47.537 99.6172 46.6772 98.6774 46.063C97.4925 45.285 96.2258 45.4079 95.7763 45.4488H74.7742C73.957 45.326 72.8538 45.2441 71.5054 45.2441C71.5054 45.2441 68.7677 45.285 65.9892 46.063C60.5548 47.578 55.6925 52.2866 55.3656 52.6142C46.8258 61.0079 46.0495 75.2567 45.9677 77.0992V184.62C45.886 187.118 46.0086 190.844 47.1935 195.102C47.9699 197.846 48.828 200.917 51.2796 204.11C55.2022 209.187 60.6366 211.235 63.5376 212.299C65.2129 212.913 66.643 213.282 67.6237 213.528C68.7269 213.732 69.9527 213.855 71.3011 213.937C73.2624 214.019 75.0602 213.937 76.5312 213.732H264.774C265.183 214.142 265.591 214.551 266 214.961Z" fill="white"/>
</svg>
