<svg width="1440" height="104" viewBox="0 0 1440 104" fill="none" xmlns="http://www.w3.org/2000/svg">
<path d="M0 77.9842L48 74.7552C96 71.2824 192 65.1899 288 58.4882C384 51.7864 480 45.6939 576 58.4882C672 71.2824 768 104.182 864 103.999C960 104.182 1056 71.2824 1152 58.4882C1248 45.6939 1344 51.7864 1392 55.2591L1440 58.4882V-1.53274e-06H1392C1344 -1.53274e-06 1248 -1.53274e-06 1152 -1.53274e-06C1056 -1.53274e-06 960 -1.53274e-06 864 -1.53274e-06C768 -1.53274e-06 672 -1.53274e-06 576 -1.53274e-06C480 -1.53274e-06 384 -1.53274e-06 288 -1.53274e-06C192 -1.53274e-06 96 -1.53274e-06 48 -1.53274e-06H0V77.9842Z" fill="#F4F4F4"/>
</svg>
