<svg width="1440" height="178" viewBox="0 0 1440 178" fill="none" xmlns="http://www.w3.org/2000/svg">
<path d="M0 128L48 138.7C96 149 192 171 288 176C384 181 480 171 576 149.3C672 128 768 96 864 101.3C960 107 1056 149 1152 154.7C1248 160 1344 128 1392 112L1440 96V3.05176e-05H1392C1344 3.05176e-05 1248 3.05176e-05 1152 3.05176e-05C1056 3.05176e-05 960 3.05176e-05 864 3.05176e-05C768 3.05176e-05 672 3.05176e-05 576 3.05176e-05C480 3.05176e-05 384 3.05176e-05 288 3.05176e-05C192 3.05176e-05 96 3.05176e-05 48 3.05176e-05H0V128Z" fill="#666666"/>
</svg>
