<svg width="1384" height="104" viewBox="0 0 1384 104" fill="none" xmlns="http://www.w3.org/2000/svg">
<path d="M-56 77.9842L-8 74.7552C40 71.2824 136 65.1899 232 58.4882C328 51.7864 424 45.6939 520 58.4882C616 71.2824 712 104.182 808 103.999C904 104.182 1000 71.2824 1096 58.4882C1192 45.6939 1288 51.7864 1336 55.2591L1384 58.4882V-1.53274e-06H1336C1288 -1.53274e-06 1192 -1.53274e-06 1096 -1.53274e-06C1000 -1.53274e-06 904 -1.53274e-06 808 -1.53274e-06C712 -1.53274e-06 616 -1.53274e-06 520 -1.53274e-06C424 -1.53274e-06 328 -1.53274e-06 232 -1.53274e-06C136 -1.53274e-06 40 -1.53274e-06 -8 -1.53274e-06H-56V77.9842Z" fill="#666666"/>
</svg>
