<svg width="281" height="281" viewBox="0 0 281 281" fill="none" xmlns="http://www.w3.org/2000/svg">
<path fill-rule="evenodd" clip-rule="evenodd" d="M114.993 94.8273C112.806 103.637 99.4968 154.452 99.4968 154.452H132.074C132.074 154.452 117.585 103.637 115.421 94.8273H114.993Z" fill="white"/>
<path fill-rule="evenodd" clip-rule="evenodd" d="M0 0V281H281V0H0ZM148.234 217.143L136.853 179.399H94.739L84.1944 217.143H49.6876L94.7396 69.9653H138.354L183.984 217.143H148.234ZM230.219 217.143H196.978V110.408H230.219V217.143ZM213.395 97.2711C202.936 97.2711 195.907 89.8119 196.142 80.6828C195.907 71.059 202.937 63.8574 213.653 63.8574C224.369 63.8574 231.056 71.0584 231.312 80.6828C231.312 89.8119 224.369 97.2711 213.395 97.2711Z" fill="white"/>
</svg>
