<svg width="455" height="455" viewBox="0 0 455 455" fill="none" xmlns="http://www.w3.org/2000/svg">
<path fill-rule="evenodd" clip-rule="evenodd" d="M186.199 153.546C182.657 167.81 161.107 250.091 161.107 250.091H213.857C213.857 250.091 190.396 167.81 186.891 153.546H186.199Z" fill="#3E3D3D"/>
<path fill-rule="evenodd" clip-rule="evenodd" d="M0 0V455H455V0H0ZM240.023 351.601L221.595 290.486H153.403L136.329 351.601H80.455L153.404 113.289H224.025L297.91 351.601H240.023ZM372.774 351.601H318.95V178.775H372.774V351.601ZM345.533 157.503C328.598 157.503 317.216 145.425 317.597 130.643C317.216 115.06 328.599 103.399 345.95 103.399C363.302 103.399 374.13 115.059 374.545 130.643C374.545 145.425 363.302 157.503 345.533 157.503Z" fill="#3E3D3D"/>
</svg>
