<svg width="120" height="150" viewBox="0 0 120 150" fill="none" xmlns="http://www.w3.org/2000/svg">
<path d="M30 150C46.56 150 60 138.8 60 125V100H30C13.44 100 0 111.2 0 125C0 138.8 13.44 150 30 150Z" fill="#0ACF83"/>
<path d="M0 75C0 61.2 13.44 50 30 50H60V100H30C13.44 100 0 88.8 0 75Z" fill="#A259FF"/>
<path d="M0 25C0 11.2 13.44 0 30 0H60V50H30C13.44 50 0 38.8 0 25Z" fill="#F24E1E"/>
<path d="M60 0H90C106.56 0 120 11.2 120 25C120 38.8 106.56 50 90 50H60V0Z" fill="#FF7262"/>
<path d="M120 75C120 88.8 106.56 100 90 100C73.44 100 60 88.8 60 75C60 61.2 73.44 50 90 50C106.56 50 120 61.2 120 75Z" fill="#1ABCFE"/>
</svg>
