<svg width="116" height="90" viewBox="0 0 116 90" fill="none" xmlns="http://www.w3.org/2000/svg">
<path d="M0.307617 81.7209H4.10898V59.2045L9.99367 78.8335C10.6881 81.209 11.6386 82.05 13.5026 82.05C15.3669 82.05 16.2806 81.2094 16.9754 78.8335L22.8601 59.2045V81.7205H26.6614V59.2413C26.6614 57.0479 26.0765 55.988 24.8706 55.4401C21.983 54.0876 20.0456 55.2572 19.1682 58.1815L13.3931 77.5539L7.80083 58.1815C6.96016 55.2572 4.98636 54.0876 2.09878 55.4401C0.892534 55.988 0.307617 57.0483 0.307617 59.2409V81.7209V81.7209ZM29.8222 63.3938H33.6224V75.7987C33.5869 76.4727 33.7666 78.0543 35.849 78.1031C36.9114 78.1284 44.0485 78.1031 44.1151 78.1031V63.3334H47.9242C47.9416 63.3334 47.9203 83.4757 47.9206 83.5614C47.9413 88.529 43.8114 89.608 41.9078 89.6915H29.9045V85.8552C29.9258 85.8552 41.8989 85.8592 41.9291 85.8547C44.3756 85.4671 44.0867 83.6431 44.0864 83.029V81.5336H36.0065C32.2472 81.4816 29.8536 79.0204 29.824 76.1898C29.8211 75.9274 29.9051 63.5176 29.8219 63.3933L29.8222 63.3938Z" fill="#00618A"/>
<path d="M50.8538 81.721H61.7825C63.0619 81.721 64.3045 81.3192 65.2917 80.6243C66.9363 79.4916 67.7406 77.9567 67.7406 75.9457V71.7791C67.7406 70.134 66.8268 68.5986 65.0357 67.5756C64.0852 67.0268 62.9156 66.7346 61.7825 66.7346H57.1766C55.6421 66.7346 54.9109 66.0402 54.7283 64.5052C54.6916 64.3223 54.6916 64.1757 54.6916 63.9932V61.3984C54.6916 61.2519 54.6916 61.1054 54.7283 60.9229C54.9109 59.7533 55.3132 59.4239 56.6654 59.2414C56.7749 59.2414 56.9211 59.2045 57.031 59.2045H67.8868V55.4038H57.2136C55.6785 55.4038 54.8742 55.5498 54.1434 55.8784C51.8771 56.9387 50.8902 58.6202 50.8902 61.5441V64.8706C50.8902 67.4295 52.8276 69.6225 56.0805 70.134C56.4463 70.1704 56.8116 70.2068 57.1769 70.2068H61.1245C61.271 70.2068 61.4172 70.2068 61.5268 70.2437C62.733 70.3902 63.2445 70.7188 63.6104 71.3768C63.8294 71.7054 63.9025 72.0348 63.9025 72.4002V75.7259C63.9025 76.1287 63.7199 76.6406 63.3546 77.0788C63.0255 77.5175 62.4772 77.8101 61.7461 77.8834C61.5999 77.8834 61.4903 77.9198 61.3441 77.9198H50.8535V81.7206L50.8538 81.721ZM91.4546 75.1052C91.4546 79.0161 93.3917 81.2095 97.3029 81.6482C97.6681 81.6846 98.034 81.721 98.3993 81.721H108.305V77.9198H98.3262C96.0966 77.9198 95.2559 77.0788 95.2559 75.0688V55.4033H91.4546V75.1052ZM70.1667 75.3046V61.7519C70.1667 58.309 71.7785 56.2208 74.9647 55.5614C75.3045 55.4887 75.6472 55.452 75.9904 55.4517H83.206C83.5721 55.4517 83.9022 55.4886 84.2683 55.5614C87.4549 56.2208 89.0664 58.309 89.0664 61.7519V75.3041C89.0664 78.097 88.382 79.5924 86.8046 80.5666L90.5491 85.6364H86.1353L83.1059 81.5345L80.0561 81.8245H75.9904C75.2945 81.8245 74.5622 81.6775 73.7561 81.3481C71.3389 80.3592 70.1667 78.4544 70.1667 75.3041V75.3046ZM74.2694 74.9751C74.2694 75.1585 74.3061 75.3414 74.3428 75.5612C74.5625 77.1361 75.5514 78.0153 77.0531 78.0153H80.5066L77.3343 73.7194H81.7478L84.5149 77.466C85.0246 77.0584 85.3603 76.435 85.4775 75.6345C85.514 75.4515 85.514 75.2681 85.514 75.0852V62.0822C85.514 61.9357 85.514 61.7523 85.4775 61.5689C85.2576 60.1037 84.2686 59.2618 82.8037 59.2618H77.0531C75.3685 59.2618 74.2697 60.3608 74.2697 62.0822V74.9751H74.2694Z" fill="#E48E00"/>
<path d="M111.65 49.0971C109.313 49.0021 107.528 49.328 106.002 50.2933C105.569 50.5677 104.877 50.5748 104.807 51.39C105.045 51.7647 105.082 52.3242 105.271 52.7851C105.635 53.6696 106.251 54.8547 106.8 55.4763C107.399 56.1556 108.017 56.8816 108.66 57.4699C109.804 58.5156 111.081 59.1128 112.182 60.1606C112.831 60.7783 113.475 61.5562 114.108 62.2533C114.421 62.5978 114.632 63.1338 115.038 63.35V63.2501C114.825 62.8421 114.77 62.2808 114.573 61.8546L113.71 60.5589C112.865 58.8774 111.793 57.4006 110.653 56.1738C109.745 55.1952 107.71 53.8738 107.331 52.2869L107.265 52.187C107.909 52.0782 108.664 51.7283 109.258 51.4899C110.257 51.0876 111.15 51.1915 112.182 50.7919C112.646 50.5925 113.112 50.3927 113.577 50.1938V49.7951C113.056 48.9923 112.684 47.9302 112.115 47.2038C110.627 45.3034 109.003 43.4048 107.331 41.8219C106.404 40.9436 105.258 40.3731 104.275 39.6289C103.944 39.3789 103.363 39.2488 103.145 38.8315C102.629 37.8444 102.348 36.5927 101.949 35.4427C101.115 33.0339 100.296 30.4027 99.5574 27.8678C99.0533 26.1397 98.7241 24.4356 98.0957 22.8846C95.0788 15.4443 91.8312 10.9539 86.8005 6.53952C85.7301 5.60087 84.4413 5.22967 83.0794 4.7457L80.8868 4.54589C80.4407 4.26616 79.9766 3.44784 79.5577 3.05089C77.8912 1.47197 73.6168 -1.96338 72.3824 2.5527C71.603 5.40328 73.5472 8.18504 74.2425 9.62943C74.7307 10.6427 75.3555 11.7785 75.7042 12.9183C75.9337 13.6673 75.9733 14.4181 76.1696 15.2107C76.6527 17.163 77.0724 19.2868 77.6976 21.0908C78.0134 22.0037 78.3615 22.9654 78.7609 23.7815C79.0057 24.2828 79.4251 24.5035 79.4914 25.277C79.0811 26.1384 79.0578 27.4749 78.8272 28.5658C77.7888 33.4775 78.1804 39.5818 79.6909 43.217C80.1545 44.3328 81.2462 46.7261 82.7472 45.8083C84.0603 45.0059 83.767 42.5199 84.1426 40.3269C84.2276 39.8296 84.1752 39.4637 84.3418 39.1307V39.2306L85.5377 42.8183C86.4228 44.9562 87.994 47.1909 89.3252 48.6988C90.0155 49.4807 90.559 50.8328 91.4514 51.2901V51.1902H91.3848C91.212 50.7861 90.9414 50.6183 90.7206 50.2933C90.2005 49.5287 89.6224 48.578 89.1923 47.702C87.9816 45.2364 86.9115 42.5381 85.9368 39.7288C85.4711 38.3879 85.0665 36.9075 84.674 35.5426C84.5227 35.0165 84.5245 34.2208 84.2092 33.9477C83.7794 34.9481 83.1463 35.7571 82.8138 36.9382C82.2822 38.8261 82.2135 41.1283 82.0167 43.5158C81.9001 43.5784 81.9516 43.5354 81.8835 43.6153C80.9581 43.2805 80.6328 41.8516 80.2892 40.6257C79.4189 37.5256 79.2576 32.5335 80.0227 28.965C80.2211 28.0414 81.1162 25.1331 80.7539 24.2806C80.581 23.4294 80.0103 22.937 79.6909 22.287C79.2957 21.4829 78.9012 20.4243 78.6277 19.4959C77.9157 17.0787 77.5833 14.3653 76.8338 11.9219C76.4757 10.7537 75.8697 9.5717 75.3721 8.53315C74.8213 7.38315 74.2044 6.53508 73.7775 5.14398C73.6257 4.64979 73.4193 3.85855 73.6443 3.35015C73.7162 3.00737 73.8172 2.86396 74.0433 2.75206C74.4287 2.30672 75.5021 2.90037 75.9035 3.15079C76.9691 3.81459 77.8583 4.44687 78.7609 5.34334C79.1942 5.77448 79.6323 6.6079 80.156 6.83879H80.7539C81.6893 7.16114 82.7372 6.93869 83.611 7.33697C85.1556 8.04118 86.5397 9.13612 87.7966 10.327C91.6267 13.9541 94.7579 19.1176 96.8998 25.277C97.2444 26.2685 97.3936 27.2151 97.697 28.267C98.3094 30.3885 99.0808 32.5713 99.69 34.6457C100.298 36.7148 100.891 38.8039 101.75 40.5263C102.202 41.4316 103.947 41.9174 104.74 42.4195C105.296 42.7721 106.207 43.1393 106.733 43.6153C107.739 44.5255 108.714 45.6089 109.657 46.6057C110.129 47.1039 111.578 48.1966 111.65 49.0971H111.65Z" fill="#00618A"/>
<path fill-rule="evenodd" clip-rule="evenodd" d="M81.9491 11.1243C81.4619 11.111 81.1173 11.2042 80.7529 11.3232V11.4231H80.8195C81.0519 12.1393 81.4619 12.6002 81.7496 13.217C81.9709 13.9148 82.1924 14.6125 82.4141 15.31L82.4804 15.2106C82.8919 14.7754 83.0804 14.0797 83.0784 13.018C82.9135 12.7578 82.8889 12.4311 82.7462 12.1207C82.5562 11.7069 82.1886 11.4724 81.9491 11.1243V11.1243Z" fill="#00618A"/>
<path fill-rule="evenodd" clip-rule="evenodd" d="M110.089 77.8111C110.089 80.3216 111.411 82.0133 112.891 82.0133C114.37 82.0133 115.692 80.3216 115.692 77.8111C115.692 75.3011 114.37 73.6094 112.891 73.6094C111.411 73.6094 110.089 75.3011 110.089 77.8111H110.089ZM115.064 77.8111C115.064 79.7159 114.094 81.1394 112.891 81.1394C111.673 81.1394 110.717 79.7159 110.717 77.8111C110.717 75.9063 111.673 74.4828 112.891 74.4828C114.094 74.4828 115.064 75.9063 115.064 77.8111ZM113.645 80.2088H114.273L113.354 78.1028C113.847 78.0242 114.22 77.6655 114.22 76.7916C114.22 75.8166 113.81 75.4134 113.018 75.4134H111.77V80.2088H112.308V78.1361H112.808L113.645 80.2092V80.2088ZM112.308 77.4639V76.0856H112.928C113.249 76.0856 113.638 76.1753 113.638 76.7357C113.638 77.4075 113.287 77.4639 112.883 77.4639H112.308V77.4639Z" fill="#E48E00"/>
</svg>
