<svg width="150" height="150" viewBox="0 0 150 150" fill="none" xmlns="http://www.w3.org/2000/svg">
<path d="M127.368 24.0601H22.6318V125.94H127.368V24.0601Z" fill="#001D26"/>
<path fill-rule="evenodd" clip-rule="evenodd" d="M17.8711 19.2993V130.701H132.129V19.2993H17.8711ZM22.6318 24.0601H127.369V125.94H22.6318V24.0601Z" fill="#00C8FF"/>
<path fill-rule="evenodd" clip-rule="evenodd" d="M45.4834 45.3832C45.4834 45.069 46.157 44.8338 46.5498 44.8338C49.6134 44.6767 54.1108 44.5981 58.824 44.5981C72.0208 44.5981 77.16 51.8254 77.16 61.0936C77.16 73.1906 68.3869 78.3755 57.6252 78.3755C55.8185 78.3755 55.1901 78.2965 53.9333 78.2965V96.5872C53.9333 96.9805 53.7761 97.1376 53.3834 97.1376H46.0333C45.6405 97.1376 45.4834 96.9805 45.4834 96.5872V45.3832ZM53.9337 70.6774C55.0335 70.7555 55.8975 70.7555 57.7828 70.7555C63.36 70.7555 68.5983 68.7917 68.5983 61.2507C68.5983 55.2022 64.8525 52.1387 58.4898 52.1387C56.6045 52.1387 54.7978 52.2172 53.9337 52.2958V70.6774ZM94.9105 65.0212C91.14 65.0212 89.8831 66.9069 89.8831 68.4775C89.8831 70.2061 90.7467 71.3839 95.7745 73.9766C103.237 77.59 105.594 81.0463 105.594 86.1522C105.594 93.7722 99.7807 97.8569 91.9255 97.8569C87.7622 97.8569 84.2188 96.9924 82.1764 95.8141C81.8622 95.657 81.7837 95.4218 81.7837 95.0286V88.0379C81.7837 87.5666 82.0193 87.4095 82.3335 87.6447C85.3185 89.6085 88.7829 90.473 91.925 90.473C95.6955 90.473 97.2666 88.9015 97.2666 86.7806C97.2666 85.052 96.1668 83.5595 91.3751 81.0463C84.6196 77.8252 81.7917 74.526 81.7917 69.0278C81.7917 62.9003 86.5834 57.7944 94.91 57.7944C98.9947 57.7944 101.879 58.4228 103.45 59.1298C103.843 59.3659 103.921 59.7582 103.921 60.0724V66.5927C103.921 66.985 103.685 67.2211 103.214 67.064C101.094 65.8072 97.9745 65.0212 94.9105 65.0212V65.0212Z" fill="#00C8FF"/>
</svg>
